<svg xmlns="http://www.w3.org/2000/svg" xmlns:xlink="http://www.w3.org/1999/xlink" width="100%" height="100%" preserveAspectRatio="xMidYMid meet" viewBox="0 0 402 251"><defs><rect id="fac-a" width="367" height="218" rx="4"/><mask id="fac-d" width="367" height="218" x="0" y="0" fill="#fff"><use xlink:href="#fac-a"/></mask><rect id="fac-b" width="345" height="180" rx="4"/><mask id="fac-e" width="345" height="180" x="0" y="0" fill="#fff"><use xlink:href="#fac-b"/></mask><linearGradient id="fac-f" x1="0%" x2="0%" y1="31.325%" y2="0%"><stop offset="0%" stop-color="#FFF" stop-opacity=".739"/><stop offset="100%" stop-color="#FFF" stop-opacity="0"/></linearGradient><linearGradient id="fac-g" x1="14.641%" x2="77.092%" y1="0%" y2="79.931%"><stop class="docs-svg-primary-light-40-stop-color" offset="0%" stop-color="#0CBFD6"/><stop class="docs-svg-primary-light-30-stop-color" offset="100%" stop-color="#05BED5" stop-opacity=".152"/></linearGradient><g id="fac-c"><path fill="#4CAF50" d="M12 22c4.97 0 9-4.03 9-9-4.97 0-9 4.03-9 9zM3 13c0 4.97 4.03 9 9 9 0-4.97-4.03-9-9-9z"/><path fill="#3F51B5" d="M5.6 10.25c0 1.38 1.12 2.5 2.5 2.5.53 0 1.01-.16 1.42-.44l-.02.19c0 1.38 1.12 2.5 2.5 2.5s2.5-1.12 2.5-2.5l-.02-.19c.4.28.89.44 1.42.44 1.38 0 2.5-1.12 2.5-2.5 0-1-.59-1.85-1.43-2.25.84-.4 1.43-1.25 1.43-2.25 0-1.38-1.12-2.5-2.5-2.5-.53 0-1.01.16-1.42.44l.02-.19C14.5 2.12 13.38 1 12 1S9.5 2.12 9.5 3.5l.02.19c-.4-.28-.89-.44-1.42-.44-1.38 0-2.5 1.12-2.5 2.5 0 1 .59 1.85 1.43 2.25-.84.4-1.43 1.25-1.43 2.25zM12 5.5c1.38 0 2.5 1.12 2.5 2.5s-1.12 2.5-2.5 2.5S9.5 9.38 9.5 8s1.12-2.5 2.5-2.5z"/></g><mask id="fac-h" width="117.428" height="116.116" x="0" y="0" fill="#fff"><use xlink:href="#fac-c"/></mask><mask id="fac-i" width="117.428" height="116.116" x="0" y="0" fill="#fff"><use xlink:href="#fac-c"/></mask></defs><g fill="none" fill-rule="evenodd" transform="translate(16 19)"><use fill="#FFF" stroke="#00BCD4" stroke-width="2.2" class="docs-svg-primary-light-20-stroke" mask="url(#fac-d)" xlink:href="#fac-a"/><path fill="#89E0EB" d="M338 18h14v-2h-14v2zm0-4h14v-2h-14v2zm0-6v2h14V8h-14z" class="docs-svg-primary-fill"/><g fill="#89E0EB" class="docs-svg-primary-fill" transform="translate(12 9)"><ellipse cx="2.471" cy="2.5" rx="2.471" ry="2.5"/><ellipse cx="10.294" cy="2.5" rx="2.471" ry="2.5"/><ellipse cx="18.529" cy="2.5" rx="2.471" ry="2.5"/></g><use fill="#e9f7fb" stroke="#00BCD4" stroke-opacity=".449" stroke-width="2.2" class="docs-svg-primary-light-60-fill" mask="url(#fac-e)" transform="translate(10 25)" xlink:href="#fac-b"/><g transform="translate(123 56) scale(5)"><use xlink:href="#fac-c"/></g></g></svg>