<svg xmlns="http://www.w3.org/2000/svg" xmlns:xlink="http://www.w3.org/1999/xlink" width="100%" height="100%" preserveAspectRatio="xMidYMid meet" viewBox="0 0 402 251"><defs><rect id="fac-a" width="367" height="218" rx="4"/><mask id="fac-d" width="367" height="218" x="0" y="0" fill="#fff"><use xlink:href="#fac-a"/></mask><rect id="fac-b" width="345" height="180" rx="4"/><mask id="fac-e" width="345" height="180" x="0" y="0" fill="#fff"><use xlink:href="#fac-b"/></mask><linearGradient id="fac-f" x1="0%" x2="0%" y1="31.325%" y2="0%"><stop offset="0%" stop-color="#FFF" stop-opacity=".739"/><stop offset="100%" stop-color="#FFF" stop-opacity="0"/></linearGradient><linearGradient id="fac-g" x1="14.641%" x2="77.092%" y1="0%" y2="79.931%"><stop class="docs-svg-primary-light-40-stop-color" offset="0%" stop-color="#0CBFD6"/><stop class="docs-svg-primary-light-30-stop-color" offset="100%" stop-color="#05BED5" stop-opacity=".152"/></linearGradient><g id="fac-c"><path fill="#FFEA00" stroke="#FFB300" stroke-width=".2" d="M6.76 4.84l-1.8-1.79-1.41 1.41 1.79 1.79 1.42-1.41zM4 10.5H1v2h3v-2zm9-9.95h-2V3.5h2V.55zm7.45 3.91l-1.41-1.41-1.79 1.79 1.41 1.41 1.79-1.79zm-3.21 13.7l1.79 1.8 1.41-1.41-1.8-1.79-1.4 1.4zM20 10.5v2h3v-2h-3zm-8-5c-3.31 0-6 2.69-6 6s2.69 6 6 6 6-2.69 6-6-2.69-6-6-6zm-1 16.95h2V19.5h-2v2.95zm-7.45-3.91l1.41 1.41 1.79-1.8-1.41-1.41-1.79 1.8z" transform="translate(-16 -5)"/><path fill="#006064" stroke="#fff" stroke-width=".2" d="M9 2c-1.05 0-2.05.16-3 .46 4.06 1.27 7 5.06 7 9.54 0 4.48-2.94 8.27-7 9.54.95.3 1.95.46 3 .46 5.52 0 10-4.48 10-10S14.52 2 9 2z" transform="translate(16 5)"/></g><mask id="fac-h" width="117.428" height="116.116" x="0" y="0" fill="#fff"><use xlink:href="#fac-c"/></mask><mask id="fac-i" width="117.428" height="116.116" x="0" y="0" fill="#fff"><use xlink:href="#fac-c"/></mask></defs><g fill="none" fill-rule="evenodd" transform="translate(16 19)"><use fill="#FFF" stroke="#00BCD4" stroke-width="2.2" class="docs-svg-primary-light-20-stroke" mask="url(#fac-d)" xlink:href="#fac-a"/><path fill="#89E0EB" d="M338 18h14v-2h-14v2zm0-4h14v-2h-14v2zm0-6v2h14V8h-14z" class="docs-svg-primary-fill"/><g fill="#89E0EB" class="docs-svg-primary-fill" transform="translate(12 9)"><ellipse cx="2.471" cy="2.5" rx="2.471" ry="2.5"/><ellipse cx="10.294" cy="2.5" rx="2.471" ry="2.5"/><ellipse cx="18.529" cy="2.5" rx="2.471" ry="2.5"/></g><use fill="#e9f7fb" stroke="#00BCD4" stroke-opacity=".449" stroke-width="2.2" class="docs-svg-primary-light-60-fill" mask="url(#fac-e)" transform="translate(10 25)" xlink:href="#fac-b"/><g transform="translate(123 56) scale(5)"><use xlink:href="#fac-c"/></g></g></svg>